<svg width="200" height="200" viewBox="0 0 200 200" fill="none" xmlns="http://www.w3.org/2000/svg">
<path d="M46.9417 63.6084L100 10.55L153.058 63.6084C160.264 70.8139 165.722 79.0167 169.433 88.2167C173.144 97.4167 175 106.9 175 116.667C175 126.478 173.144 135.961 169.433 145.117C165.722 154.272 160.264 162.453 153.058 169.658C145.853 176.864 137.65 182.333 128.45 186.067C119.25 189.8 109.767 191.667 100 191.667C90.2333 191.667 80.75 189.8 71.55 186.067C62.35 182.333 54.1472 176.864 46.9417 169.658C39.7806 162.453 34.3333 154.261 30.6 145.083C26.8667 135.906 25 126.433 25 116.667C25 106.9 26.8667 97.4167 30.6 88.2167C34.3333 79.0167 39.7806 70.8139 46.9417 63.6084ZM141.275 75.3917L100 34.1167L58.725 75.3917C53.1694 80.9917 48.9389 87.3723 46.0333 94.5334C43.1278 101.694 41.675 109.072 41.675 116.667C41.675 124.261 43.1194 131.628 46.0083 138.767C48.8972 145.906 53.1389 152.275 58.7333 157.875C64.3278 163.475 70.7083 167.728 77.875 170.633C85.0417 173.539 92.4194 174.992 100.008 174.992C107.647 174.992 115.036 173.539 122.175 170.633C129.314 167.728 135.683 163.475 141.283 157.875C146.883 152.275 151.125 145.917 154.008 138.8C156.892 131.683 158.336 124.306 158.342 116.667C158.342 109.072 156.897 101.694 154.008 94.5334C151.119 87.3723 146.878 80.9917 141.283 75.3917H141.275Z" fill="black"/>
</svg>
