<svg width="200" height="200" viewBox="0 0 200 200" fill="none" xmlns="http://www.w3.org/2000/svg">
<path d="M100 183.333C91.2551 183.333 82.7316 180.582 75.6372 175.469C68.5428 170.355 63.2371 163.139 60.4717 154.843C57.7062 146.547 57.6213 137.59 60.2288 129.243C62.8363 120.896 68.0041 113.58 75.0002 108.333V41.6667C75.0002 35.0363 77.6341 28.6775 82.3225 23.9891C87.0109 19.3007 93.3697 16.6667 100 16.6667C106.631 16.6667 112.989 19.3007 117.678 23.9891C122.366 28.6775 125 35.0363 125 41.6667V108.333C131.996 113.58 137.164 120.896 139.772 129.243C142.379 137.59 142.294 146.547 139.529 154.843C136.763 163.139 131.457 170.355 124.363 175.469C117.269 180.582 108.745 183.333 100 183.333ZM108.333 79.5001V41.6667C108.351 40.5932 108.145 39.5277 107.729 38.5379C107.313 37.5481 106.696 36.6555 105.917 35.9167C105.152 35.1142 104.235 34.4724 103.219 34.0288C102.203 33.5852 101.109 33.3488 100 33.3334C97.79 33.3334 95.6704 34.2114 94.1076 35.7742C92.5448 37.337 91.6668 39.4566 91.6668 41.6667V79.5001H108.333Z" fill="black"/>
</svg>
